<svg width="16" height="16" viewBox="0 0 16 16" fill="none" xmlns="http://www.w3.org/2000/svg">
<path d="M4.00016 2H3.3335V14H9.3335C10.0716 14.0001 10.7889 13.7553 11.3728 13.3039C11.9568 12.8525 12.3744 12.22 12.5602 11.5056C12.7459 10.7913 12.6894 10.0355 12.3993 9.35677C12.1093 8.67805 11.6022 8.11479 10.9575 7.75533C11.4423 7.29689 11.7784 6.7035 11.9222 6.05194C12.0661 5.40037 12.0111 4.72064 11.7643 4.10069C11.5176 3.48073 11.0905 2.9491 10.5382 2.57459C9.986 2.20007 9.33408 1.99991 8.66683 2H4.00016ZM8.66683 7.33333H4.66683V3.33333H8.66683C9.19726 3.33333 9.70597 3.54405 10.081 3.91912C10.4561 4.29419 10.6668 4.8029 10.6668 5.33333C10.6668 5.86377 10.4561 6.37247 10.081 6.74755C9.70597 7.12262 9.19726 7.33333 8.66683 7.33333ZM4.66683 8.66667H9.3335C9.86393 8.66667 10.3726 8.87738 10.7477 9.25245C11.1228 9.62753 11.3335 10.1362 11.3335 10.6667C11.3335 11.1971 11.1228 11.7058 10.7477 12.0809C10.3726 12.456 9.86393 12.6667 9.3335 12.6667H4.66683V8.66667Z" fill="black"/>
</svg>
