<svg width="16" height="16" viewBox="0 0 16 16" fill="none" xmlns="http://www.w3.org/2000/svg">
<path d="M7.49738 9.91379L4.08651 6.50292C4.04526 6.46177 4.01714 6.40931 4.00572 6.35218C3.99429 6.29505 4.00007 6.23581 4.02233 6.18197C4.04459 6.12812 4.08232 6.08209 4.13074 6.0497C4.17917 6.01731 4.23612 6.00001 4.29438 6H11.1173C11.1756 6.00001 11.2325 6.01731 11.281 6.0497C11.3294 6.08209 11.3671 6.12812 11.3894 6.18197C11.4116 6.23581 11.4174 6.29505 11.406 6.35218C11.3946 6.40931 11.3664 6.46177 11.3252 6.50292L7.91373 9.91379C7.85851 9.96899 7.78363 10 7.70555 10C7.62748 10 7.5526 9.96899 7.49738 9.91379Z" fill="black"/>
</svg>
