<svg width="16" height="16" viewBox="0 0 16 16" fill="none" xmlns="http://www.w3.org/2000/svg">
<path d="M11.1494 9.875C10.4619 11.0662 9.3125 11.75 8 11.75C6.6875 11.75 5.54 11.0669 4.85063 9.875C4.75546 9.70303 4.7316 9.50058 4.78418 9.3112C4.83676 9.12182 4.96158 8.96065 5.13178 8.86236C5.30198 8.76407 5.50397 8.73653 5.69427 8.78564C5.88458 8.83476 6.048 8.95662 6.14938 9.125C6.3925 9.54562 6.95625 10.25 8 10.25C9.04375 10.25 9.6075 9.545 9.85063 9.125C9.89888 9.03782 9.96401 8.96112 10.0422 8.8994C10.1205 8.83767 10.2102 8.79215 10.3062 8.76549C10.4022 8.73883 10.5026 8.73158 10.6014 8.74414C10.7003 8.75671 10.7956 8.78884 10.8819 8.83867C10.9682 8.8885 11.0437 8.95503 11.104 9.03436C11.1643 9.11369 11.2081 9.20424 11.233 9.30072C11.2579 9.39721 11.2634 9.49768 11.249 9.59628C11.2346 9.69488 11.2008 9.78963 11.1494 9.875ZM14.75 8C14.75 9.33502 14.3541 10.6401 13.6124 11.7501C12.8707 12.8601 11.8165 13.7253 10.5831 14.2362C9.34971 14.7471 7.99252 14.8808 6.68314 14.6203C5.37377 14.3598 4.17104 13.717 3.22703 12.773C2.28303 11.829 1.64015 10.6262 1.3797 9.31686C1.11925 8.00749 1.25292 6.65029 1.76382 5.41689C2.27471 4.18349 3.13987 3.12928 4.2499 2.38758C5.35994 1.64588 6.66498 1.25 8 1.25C9.78961 1.25199 11.5053 1.96378 12.7708 3.22922C14.0362 4.49466 14.748 6.2104 14.75 8ZM13.25 8C13.25 6.96165 12.9421 5.94661 12.3652 5.08326C11.7883 4.2199 10.9684 3.54699 10.0091 3.14963C9.04978 2.75227 7.99418 2.6483 6.97578 2.85088C5.95738 3.05345 5.02192 3.55346 4.28769 4.28769C3.55347 5.02191 3.05345 5.95738 2.85088 6.97578C2.64831 7.99418 2.75228 9.04978 3.14964 10.0091C3.547 10.9684 4.2199 11.7883 5.08326 12.3652C5.94662 12.9421 6.96165 13.25 8 13.25C9.39193 13.2485 10.7264 12.6949 11.7107 11.7107C12.6949 10.7264 13.2485 9.39193 13.25 8ZM5.75 7.75C5.94778 7.75 6.14112 7.69135 6.30557 7.58147C6.47002 7.47159 6.5982 7.31541 6.67388 7.13268C6.74957 6.94996 6.76937 6.74889 6.73079 6.55491C6.6922 6.36093 6.59696 6.18275 6.45711 6.04289C6.31726 5.90304 6.13907 5.8078 5.94509 5.76921C5.75111 5.73063 5.55005 5.75043 5.36732 5.82612C5.18459 5.90181 5.02841 6.02998 4.91853 6.19443C4.80865 6.35888 4.75 6.55222 4.75 6.75C4.75 7.01522 4.85536 7.26957 5.0429 7.45711C5.23043 7.64464 5.48479 7.75 5.75 7.75ZM10.25 5.75C10.0522 5.75 9.85888 5.80865 9.69443 5.91853C9.52998 6.02841 9.40181 6.18459 9.32612 6.36732C9.25044 6.55004 9.23063 6.75111 9.26922 6.94509C9.3078 7.13907 9.40304 7.31725 9.5429 7.45711C9.68275 7.59696 9.86093 7.6922 10.0549 7.73079C10.2489 7.76937 10.45 7.74957 10.6327 7.67388C10.8154 7.59819 10.9716 7.47002 11.0815 7.30557C11.1914 7.14112 11.25 6.94778 11.25 6.75C11.25 6.48478 11.1446 6.23043 10.9571 6.04289C10.7696 5.85536 10.5152 5.75 10.25 5.75Z" fill="black"/>
</svg>
