<svg width="16" height="16" viewBox="0 0 16 16" fill="none" xmlns="http://www.w3.org/2000/svg">
<path d="M5.31784 2.0555C6.19984 1.5175 7.2465 1.3335 8.00184 1.3335C9.63784 1.3335 10.8592 1.99416 12.0372 2.77416L12.5932 3.14283L11.8572 4.25416L11.3012 3.88616C10.1858 3.14816 9.2365 2.66683 8.00117 2.66683C7.42117 2.66683 6.63184 2.81483 6.0125 3.1935C5.42584 3.55083 4.99784 4.10216 4.99784 4.9995C4.99784 5.3035 5.04984 5.55083 5.13117 5.75416L5.37784 6.3735L4.13917 6.86683L3.8925 6.2475C3.73767 5.85006 3.66027 5.42667 3.6645 5.00016C3.6645 3.5615 4.4045 2.6135 5.31784 2.0555ZM2.6665 7.3335H13.3332V8.66683H11.3578C11.9265 9.20083 12.3332 9.95483 12.3332 11.0028C12.3332 12.4415 11.5932 13.3895 10.6798 13.9475C9.79784 14.4855 8.75184 14.6688 7.9965 14.6688C6.3585 14.6688 5.13917 14.0095 3.9625 13.2222L3.40784 12.8515L4.14984 11.7435L4.70317 12.1142C5.81384 12.8568 6.7605 13.3355 7.9965 13.3355C8.57717 13.3355 9.36584 13.1868 9.98517 12.8088C10.5718 12.4515 10.9998 11.9002 10.9998 11.0022C10.9998 10.1342 10.5745 9.6355 9.96717 9.29283C9.33517 8.9355 8.5565 8.7815 7.93584 8.6675H5.33584V8.66683H2.6665V7.3335Z" fill="black"/>
</svg>
