<svg width="16" height="16" viewBox="0 0 16 16" fill="none" xmlns="http://www.w3.org/2000/svg">
<g clip-path="url(#clip0_23373_198)">
<path d="M2.00016 16C1.81127 16 1.65305 15.936 1.5255 15.808C1.39794 15.68 1.33394 15.5218 1.3335 15.3333V14C1.3335 13.8111 1.3975 13.6529 1.5255 13.5253C1.6535 13.3978 1.81172 13.3338 2.00016 13.3333H14.0002C14.1891 13.3333 14.3475 13.3973 14.4755 13.5253C14.6035 13.6533 14.6673 13.8116 14.6668 14V15.3333C14.6668 15.5222 14.6028 15.6807 14.4748 15.8087C14.3468 15.9367 14.1886 16.0004 14.0002 16H2.00016ZM4.75016 11.3333C4.49461 11.3333 4.29172 11.2249 4.1415 11.008C3.99127 10.7911 3.96083 10.5607 4.05016 10.3167L6.9835 2.5C7.03905 2.34444 7.1335 2.22222 7.26683 2.13333C7.40016 2.04444 7.54461 2 7.70016 2H8.30016C8.46683 2 8.61416 2.04444 8.74216 2.13333C8.87016 2.22222 8.96172 2.34444 9.01683 2.5L11.9668 10.3333C12.0557 10.5778 12.0253 10.8056 11.8755 11.0167C11.7257 11.2278 11.5228 11.3333 11.2668 11.3333C11.1113 11.3333 10.9668 11.2889 10.8335 11.2C10.7002 11.1111 10.6057 10.9889 10.5502 10.8333L9.90016 8.93333H6.1335L5.45016 10.85C5.39461 11.0056 5.30283 11.1251 5.17483 11.2087C5.04683 11.2922 4.90483 11.3338 4.75016 11.3333ZM6.60016 7.6H9.40016L8.0335 3.73333H7.96683L6.60016 7.6Z" fill="black"/>
</g>
<defs>
<clipPath id="clip0_23373_198">
<rect width="16" height="16" fill="white"/>
</clipPath>
</defs>
</svg>
