<svg width="16" height="16" viewBox="0 0 16 16" fill="none" xmlns="http://www.w3.org/2000/svg">
<path d="M11.9998 2V8C11.9998 9.06087 11.5784 10.0783 10.8283 10.8284C10.0781 11.5786 9.0607 12 7.99984 12C6.93897 12 5.92156 11.5786 5.17141 10.8284C4.42126 10.0783 3.99984 9.06087 3.99984 8V2H5.33317V8C5.33317 8.70724 5.61412 9.38552 6.11422 9.88562C6.61432 10.3857 7.29259 10.6667 7.99984 10.6667C8.70708 10.6667 9.38536 10.3857 9.88546 9.88562C10.3856 9.38552 10.6665 8.70724 10.6665 8V2H11.9998ZM2.6665 13.3333H13.3332V14.6667H2.6665V13.3333Z" fill="black"/>
</svg>
