<svg width="11" height="7" viewBox="0 0 11 7" fill="none" xmlns="http://www.w3.org/2000/svg">
<path fill-rule="evenodd" clip-rule="evenodd" d="M4.46985 0.469828C4.61047 0.329378 4.8011 0.250488 4.99985 0.250488C5.1986 0.250488 5.38922 0.329378 5.52985 0.469828L9.77985 4.71983C9.85353 4.78849 9.91264 4.87129 9.95363 4.96329C9.99462 5.05529 10.0167 5.1546 10.0184 5.25531C10.0202 5.35601 10.0017 5.45604 9.96397 5.54943C9.92625 5.64281 9.8701 5.72765 9.79888 5.79887C9.72767 5.87009 9.64283 5.92623 9.54944 5.96395C9.45606 6.00167 9.35603 6.0202 9.25532 6.01842C9.15462 6.01664 9.05531 5.9946 8.96331 5.95361C8.87131 5.91262 8.78851 5.85351 8.71985 5.77983L4.99985 2.05983L1.27985 5.77983C1.13767 5.91231 0.949625 5.98443 0.755324 5.981C0.561023 5.97758 0.375638 5.89886 0.238225 5.76145C0.100812 5.62404 0.0220998 5.43865 0.0186715 5.24435C0.0152433 5.05005 0.0873663 4.862 0.219846 4.71983L4.46985 0.469828Z" fill="black"/>
</svg>
